<svg width="54" height="30" viewBox="0 0 54 30" fill="none" xmlns="http://www.w3.org/2000/svg">
<g clip-path="url(#clip0_6_41)">
<path d="M46 1.5C46 7.46737 44 13.5 41 17.4099C37 21.5 37 24 25.5222 24C14.0444 24 14 22.1151 9.61232 17.4099C5.22463 12.7047 5 7.96737 5 2H9C9 10.5 12.4388 14.5834 12.4388 14.5834C12.4388 14.5834 15.5222 20.0027 25.5222 20.0027C35.5222 20.0027 38 14.5834 38 14.5834C38 14.5834 41.4321 8.5 41.4321 1.5H46Z" fill="#2F2105"/>
<path d="M41.4596 9.52731C41.8656 10.8568 42.6895 12.02 43.8091 12.8441C44.9286 13.6682 46.2841 14.1094 47.6742 14.102C49.0643 14.0946 50.415 13.6391 51.5258 12.8032C52.6365 11.9673 53.4481 10.7954 53.84 9.46165C54.2319 8.12787 54.1832 6.70327 53.7012 5.39935C53.2192 4.09543 52.3296 2.9817 51.1643 2.22351C49.9991 1.46533 48.6205 1.10311 47.2331 1.19062C45.8457 1.27814 44.5235 1.81073 43.4628 2.70933L45.6146 5.24924C46.1289 4.81353 46.77 4.5553 47.4427 4.51286C48.1154 4.47043 48.7838 4.64606 49.3488 5.01368C49.9138 5.3813 50.3452 5.92131 50.5789 6.55355C50.8126 7.18578 50.8362 7.87652 50.6462 8.52323C50.4561 9.16994 50.0626 9.73814 49.5241 10.1434C48.9855 10.5488 48.3306 10.7696 47.6566 10.7732C46.9825 10.7768 46.3253 10.5629 45.7825 10.1633C45.2396 9.76371 44.8401 9.19973 44.6433 8.55507L41.4596 9.52731Z" fill="#2F2105"/>
<path d="M38.9957 2C38.9957 6.3509 37.5207 10.5236 34.8952 13.6002C32.2697 16.6767 28.7087 18.4051 24.9957 18.4051C21.2827 18.4051 17.7217 16.6767 15.0962 13.6002C12.4707 10.5236 10.9957 6.3509 10.9957 2C10.9957 2 23 2.00001 24 2.00001C30.5 2 38.9957 2 38.9957 2Z" fill="#2F2105"/>
<path d="M43.7553 27H7.24468C6.55726 27 6 27.6716 6 28.5C6 29.3284 6.55726 30 7.24468 30H43.7553C44.4427 30 45 29.3284 45 28.5C45 27.6716 44.4427 27 43.7553 27Z" fill="#2F2105"/>
</g>
<defs>
<clipPath id="clip0_6_41">
<rect width="54" height="30" fill="white"/>
</clipPath>
</defs>
</svg>
